<svg version="1.1" id="Layer_1" xmlns="http://www.w3.org/2000/svg" xmlns:xlink="http://www.w3.org/1999/xlink" x="0px" y="0px"
	 width="100%" viewBox="0 0 480 448" enable-background="new 0 0 480 448" xml:space="preserve">
<path fill="#000000" opacity="1.000000" stroke="none" 
	d="
M130.305054,406.844299 
	C115.020668,396.841492 108.992149,382.107483 107.794952,365.081726 
	C106.052795,340.305939 112.243202,316.826355 120.588028,293.823608 
	C128.044708,273.269012 137.321579,253.524597 147.934952,234.416397 
	C149.254440,232.040817 149.549652,230.036392 148.580017,227.404190 
	C144.031586,215.056778 139.899261,202.553253 136.832321,189.754517 
	C135.726089,185.138046 133.966171,184.039703 129.252686,185.120285 
	C109.207626,189.715683 89.446342,194.918991 71.941574,206.324631 
	C68.146172,208.797653 64.747566,211.728195 61.738239,215.101196 
	C54.965923,222.691864 54.348576,230.340668 59.903580,238.753387 
	C67.273766,249.915085 78.319588,256.345215 90.002258,261.924377 
	C91.354576,262.570160 92.772827,263.081390 94.109108,263.756683 
	C99.079559,266.268677 101.067642,270.620026 99.407173,275.241302 
	C97.662674,280.096436 92.840477,283.028625 87.718155,280.985413 
	C67.797478,273.039185 50.100960,262.018616 40.303715,241.872696 
	C34.065987,229.046158 37.547432,213.611267 48.557922,201.868744 
	C60.908245,188.697342 76.733292,181.422043 93.403885,175.656464 
	C104.267296,171.899323 115.335800,168.827667 126.643196,166.720047 
	C130.040558,166.086792 130.901703,164.571594 130.239594,161.166946 
	C126.802536,143.492920 124.295509,125.691322 124.854645,107.623215 
	C125.164398,97.613525 126.462379,87.695381 130.119888,78.281754 
	C137.718994,58.723309 155.073547,50.125504 175.307846,55.834057 
	C184.398193,58.398647 192.552628,62.909447 200.131683,68.446846 
	C205.779373,72.573158 211.356964,76.807762 216.793915,81.206566 
	C222.042358,85.452888 223.052658,91.342056 219.584488,95.578545 
	C215.992889,99.965820 210.624283,100.061264 204.993408,95.582535 
	C196.631470,88.931564 188.074387,82.592743 178.462173,77.826820 
	C176.376007,76.792450 174.249023,75.820213 172.079254,74.978027 
	C159.532806,70.108139 150.737289,74.038284 146.762360,86.808754 
	C142.267670,101.249130 142.761795,116.098701 144.453033,130.896240 
	C145.472076,139.812408 147.084732,148.660034 148.386902,157.544861 
	C148.916000,161.154968 149.989975,162.792343 154.513931,162.229187 
	C167.055222,160.668030 179.695023,159.841537 192.314346,159.002472 
	C195.594070,158.784393 197.818405,157.765137 199.885361,155.159088 
	C222.041092,127.225128 246.432480,101.565308 276.293976,81.657967 
	C289.264587,73.011055 302.991638,65.918419 318.692291,63.595730 
	C341.508484,60.220402 359.626221,71.186157 366.702698,93.158707 
	C372.818909,112.149506 368.938599,130.027328 359.256348,146.904327 
	C356.664337,151.422485 351.401031,152.574341 347.079437,150.188828 
	C342.707825,147.775711 340.865570,142.877060 343.172089,138.232498 
	C348.049866,128.410156 351.706177,118.420700 350.912354,107.151146 
	C349.581116,88.251747 335.695068,78.077820 317.401184,82.990562 
	C300.993042,87.396881 287.083374,96.474518 273.726776,106.591675 
	C254.885147,120.863548 238.746643,137.886124 223.395569,155.722137 
	C222.878387,156.323044 222.569901,157.103607 222.015625,158.055435 
	C224.234985,159.294495 226.421661,158.758987 228.485001,158.818451 
	C277.200958,160.222610 325.011230,166.968414 371.011108,183.718430 
	C390.993225,190.994568 410.107300,200.072449 425.216431,215.695618 
	C433.178497,223.928589 438.949097,233.437531 439.211182,245.246368 
	C439.508301,258.633270 433.249481,269.236145 423.843018,278.186371 
	C414.137360,287.421356 402.465668,293.433594 390.092377,298.178864 
	C384.630981,300.273407 379.724426,298.226471 377.629547,293.287140 
	C375.556610,288.399597 377.611694,283.430603 383.110687,281.116852 
	C393.454803,276.764557 403.507080,271.983673 411.623962,263.975037 
	C423.454498,252.302246 423.653961,240.713364 412.018005,228.662109 
	C402.228271,218.522964 389.933746,212.132050 377.300018,206.394302 
	C352.690002,195.217331 326.617279,189.022110 300.137756,184.476990 
	C270.879303,179.454895 241.370361,177.113815 211.665115,177.211472 
	C207.777069,177.224258 205.305435,178.378830 202.975555,181.610168 
	C192.146896,196.628632 182.199417,212.197311 172.804825,228.138489 
	C171.205765,230.851822 170.433670,233.221512 171.732300,236.497345 
	C188.686554,279.264679 210.964920,318.879791 241.075012,353.840576 
	C254.838013,369.820801 269.928589,384.374420 288.528595,394.765930 
	C295.837524,398.849274 303.416107,402.056549 312.116119,402.034607 
	C318.884125,402.017548 323.431549,399.070435 326.741150,393.402863 
	C332.749878,383.113068 334.279297,371.705414 334.535889,360.197906 
	C335.174530,331.560822 328.865051,304.023560 320.281860,276.924194 
	C314.742798,259.435913 308.057190,242.383911 300.564117,225.642303 
	C297.705109,219.254410 299.188263,214.139389 304.465851,211.703751 
	C309.559448,209.353012 314.516388,211.759430 317.465668,218.239990 
	C333.263763,252.953918 345.647461,288.751648 350.872894,326.697144 
	C353.956970,349.092560 354.992279,371.441040 347.341461,393.358246 
	C339.633331,415.439728 323.186584,424.810577 300.431213,419.419769 
	C281.368683,414.903778 265.896667,403.880310 251.669266,391.098633 
	C216.675339,359.660461 191.187866,321.220825 170.455978,279.378296 
	C166.541595,271.477997 162.895996,263.444550 159.110489,255.480087 
	C159.063095,255.380356 158.805222,255.380676 158.235962,255.215302 
	C152.535706,265.442749 147.784073,276.209595 143.356033,287.122375 
	C135.634720,306.151367 129.194153,325.590302 126.752625,346.066681 
	C125.509850,356.489410 125.331039,367.023132 129.166183,377.146851 
	C134.547409,391.351837 146.625305,397.318420 161.177200,392.994141 
	C170.905182,390.103424 179.341614,384.764954 187.640396,379.154938 
	C190.143082,377.463104 192.675781,375.706635 195.877335,376.105957 
	C199.624786,376.573334 202.437759,378.501251 203.730057,382.185059 
	C205.078293,386.028320 204.450638,389.788971 201.240692,392.172180 
	C187.772781,402.171112 173.627747,411.005280 156.479950,412.997925 
	C147.281204,414.066864 138.636658,411.646790 130.305054,406.844299 
M154.675980,184.208069 
	C156.959610,192.112381 159.243225,200.016693 161.944336,209.366104 
	C169.016678,198.516907 175.259598,188.940033 182.264191,178.194748 
	C172.900055,179.159790 164.898788,179.950562 156.908493,180.840012 
	C155.521408,180.994415 154.378601,181.743103 154.675980,184.208069 
z"/>
<path fill="#000000" opacity="1.000000" stroke="none" 
	d="
M247.346008,262.751221 
	C235.823349,266.202148 226.085556,263.651947 218.479141,254.986130 
	C211.303177,246.810699 209.743790,237.220825 213.925995,227.047180 
	C218.250961,216.526215 229.186066,210.028946 240.680389,210.855591 
	C251.915558,211.663620 261.315887,219.746201 264.397339,231.247971 
	C267.214355,241.762802 262.790222,253.271622 253.415573,259.542725 
	C251.633392,260.734863 249.624466,261.588043 247.346008,262.751221 
z"/>
</svg>